<?xml version="1.0" encoding="UTF-8"?>
<svg id="SVGDoc" width="16" height="16" xmlns="http://www.w3.org/2000/svg" version="1.1" xmlns:xlink="http://www.w3.org/1999/xlink" xmlns:avocode="https://avocode.com/" viewBox="0 0 16 16"><defs></defs><desc>Generated with Avocode.</desc><g><g><title>icon-pinterest</title><path d="M15.49995,8.37668c0,-4.24181 -3.51393,-7.87671 -7.38776,-7.87671c-4.26286,0 -7.61223,3.6349 -7.61223,7.87671c0,3.24689 1.74159,5.70338 4.55654,6.62665c-0.01961,-0.41892 -0.00972,-0.92327 0.12738,-1.37347c0,0 0.14704,-0.48101 0.97442,-4.12959c-0.24933,-0.50511 -0.24933,-1.25762 -0.24933,-1.25762c0,-1.17496 0.65804,-2.05212 1.47551,-2.05212c0.69791,0 1.03539,0.54721 1.03539,1.19658c0,0.7217 -0.44721,1.80396 -0.67645,2.80376c-0.18948,0.8453 0.40877,1.52548 1.08546,1.52548c1.12683,0 1.88452,-1.92747 1.88452,-4.20545c0,-1.66793 -0.88114,-2.73641 -2.5214,-2.73641c-2.32214,0 -3.74305,1.48913 -3.74305,3.48873c0,0.6907 0.19604,1.17525 0.49973,1.55657c0.13721,0.17516 0.15682,0.23715 0.10782,0.44331c-0.03916,0.14417 -0.11754,0.49478 -0.15682,0.62881c-0.04894,0.20606 -0.20576,0.27829 -0.37235,0.20606c-1.17815,-0.45345 -1.73378,-1.66984 -1.73378,-3.03039c0,-2.18222 1.99836,-5.15503 5.60784,-5.15503c2.27201,0 4.80497,2.55752 4.80497,4.74252c0,3.11295 -2.22784,5.43227 -4.24629,5.43227c-0.66835,0 -1.44595,-0.46388 -1.70517,-0.98947c-0.44864,1.61742 -0.53829,1.88117 -0.53829,1.88117c-0.15956,0.45795 -0.48864,0.91571 -0.77766,1.27264c0.69785,0.16292 1.41567,0.24825 2.17324,0.24825c3.87383,0 7.38776,-2.75277 7.38776,-7.12325z" fill="#ffffff" fill-opacity="1"></path></g></g></svg>