<svg width="0" height="0" class="hidden">
  <symbol xmlns="http://www.w3.org/2000/svg" viewBox="0 0 16 14" id="linkedin">
    <title>icon-linkedin</title>
    <path d="M.683 4.427V14h3.042V4.427zM2.223 0C1.191 0 .5.715.5 1.652c0 .917.663 1.652 1.687 1.652h.018c1.06 0 1.744-.735 1.734-1.652v-.18C3.929.714 3.266 0 2.223 0zm9.729 4.385c-1.785-.177-2.582.747-3.024 1.403V4.585h-3.35s.04.809 0 9.345h3.35V8.588c0-.29.03-.57.112-.782.244-.57.794-1.16 1.72-1.16 1.212 0 1.698.88 1.698 2.164v5.12H15.5V8.443c0-2.823-1.498-4.058-3.548-4.058z" ></path>
  </symbol>
  <symbol xmlns="http://www.w3.org/2000/svg" viewBox="0 0 16 16" id="pinterest">
    <title>icon-pinterest</title>
    <path d="M15.5 8.377C15.5 4.135 11.986.5 8.112.5 3.85.5.5 4.135.5 8.377c0 3.247 1.742 5.703 4.556 6.626-.02-.419-.01-.923.128-1.373 0 0 .147-.481.974-4.13-.249-.505-.249-1.257-.249-1.257 0-1.175.658-2.052 1.475-2.052.698 0 1.036.547 1.036 1.196 0 .722-.447 1.804-.677 2.804-.19.845.41 1.525 1.086 1.525 1.127 0 1.884-1.927 1.884-4.205 0-1.668-.88-2.737-2.521-2.737-2.322 0-3.743 1.49-3.743 3.49 0 .69.196 1.174.5 1.556.137.175.156.237.107.443-.039.144-.117.495-.156.629-.05.206-.206.278-.373.206-1.178-.453-1.733-1.67-1.733-3.03 0-2.183 1.998-5.155 5.607-5.155 2.272 0 4.805 2.557 4.805 4.742 0 3.113-2.227 5.432-4.246 5.432-.668 0-1.446-.464-1.705-.99-.449 1.618-.538 1.882-.538 1.882-.16.458-.489.916-.778 1.273a9.487 9.487 0 002.173.248c3.874 0 7.388-2.753 7.388-7.123z" ></path>
  </symbol>
  <symbol xmlns="http://www.w3.org/2000/svg" viewBox="0 0 14 14" id="rss">
    <title>icon-rss</title>
    <path d="M2.272 10.182c-.979 0-1.772.855-1.772 1.909S1.293 14 2.272 14c.978 0 1.771-.855 1.771-1.91 0-1.053-.793-1.908-1.771-1.908zM6.35 7.696C4.957 6.185 3.102 5.26 1.137 5.091H1.09a.544.544 0 00-.396.169.626.626 0 00-.194.467V7.07c0 .328.23.596.535.626 2.814.288 5.047 2.695 5.315 5.727.028.328.277.577.581.577h1.246c.166 0 .323-.07.433-.209a.674.674 0 00.157-.477C8.61 11.196 7.752 9.197 6.35 7.696zm3.322-3.58C7.383 1.641 4.348.18 1.118 0H1.09a.552.552 0 00-.406.179A.632.632 0 00.5.636v1.422c0 .328.24.607.554.627 5.36.338 9.633 4.941 9.937 10.718.019.338.277.597.59.597h1.32c.166 0 .314-.07.424-.199a.638.638 0 00.174-.467c-.174-3.48-1.53-6.752-3.827-9.218z" ></path>
  </symbol>
  <symbol xmlns="http://www.w3.org/2000/svg" viewBox="0 0 16 14" id="twitter">
    <title>icon-twitter</title>
    <path d="M15.5 2.044c-.55.254-1.15.436-1.769.507A3.241 3.241 0 0015.083.744c-.59.375-1.256.65-1.951.792A2.98 2.98 0 0010.885.5C9.181.5 7.811 1.973 7.811 3.78c0 .254.028.508.076.752C5.336 4.39 3.06 3.09 1.547 1.099a3.423 3.423 0 00-.419 1.656c0 1.137.543 2.143 1.37 2.732A2.952 2.952 0 011.11 5.07v.04c0 1.595 1.057 2.916 2.466 3.22a3.059 3.059 0 01-.81.112c-.2 0-.39-.02-.58-.05.39 1.3 1.523 2.244 2.875 2.274a5.917 5.917 0 01-3.818 1.402 6.04 6.04 0 01-.742-.04 8.297 8.297 0 004.72 1.472c5.655 0 8.748-4.997 8.748-9.334 0-.142 0-.284-.01-.426a6.82 6.82 0 001.54-1.696z" ></path>
  </symbol>
</svg>