<?xml version="1.0" encoding="UTF-8"?>
<svg id="SVGDoc" width="53" height="44" xmlns="http://www.w3.org/2000/svg" version="1.1" xmlns:xlink="http://www.w3.org/1999/xlink" xmlns:avocode="https://avocode.com/" viewBox="0 0 53 44"><defs></defs><desc>Generated with Avocode.</desc><g><g><title>Composite Path</title><path d="M20.29962,-0.00007l2.80297,4.8555c-2.35707,1.46091 -4.26811,2.72847 -5.71197,3.75975c-1.44392,1.0527 -2.93034,2.44923 -4.43792,4.16795c-1.40136,1.63282 -2.48438,3.33011 -3.22759,5.09179c-0.76437,1.7832 -1.27405,4.08204 -1.5713,6.875h3.60978c3.10022,0 5.52088,0.83793 7.30455,2.51371c1.78361,1.67577 2.67541,4.10347 2.67541,7.32616c0,2.29884 -0.82809,4.4473 -2.4631,6.42384c-1.65623,1.99807 -3.90708,2.98629 -6.77371,2.98629c-4.48024,0 -7.68661,-1.52539 -9.61888,-4.59759c-1.93232,-3.05077 -2.8879,-7.08986 -2.8879,-12.07422c0,-3.52345 0.72199,-6.72461 2.18707,-9.625c1.44392,-2.90039 3.22765,-5.5 5.30851,-7.77741c2.12348,-2.32027 4.39548,-4.29681 6.79493,-5.92963c2.37817,-1.63282 4.39543,-2.96486 6.00916,-3.99614zM50.19713,-0.00007l2.80285,4.8555c-2.35695,1.46091 -4.26805,2.72847 -5.71197,3.75975c-1.44386,1.0527 -2.93022,2.44923 -4.43786,4.16795c-1.44392,1.67577 -2.5481,3.39459 -3.27003,5.13475c-0.72199,1.76178 -1.23161,4.03909 -1.5288,6.83204h3.60966c3.10016,0 5.52082,0.83793 7.30449,2.51371c1.78373,1.67577 2.67553,4.10347 2.67553,7.32616c0,2.29884 -0.82809,4.4473 -2.46316,6.42384c-1.65623,1.99807 -3.90702,2.98629 -6.77365,2.98629c-4.4803,0 -7.68667,-1.52539 -9.619,-4.59759c-1.93226,-3.05077 -2.88779,-7.08986 -2.88779,-12.07422c0,-3.52345 0.72187,-6.72461 2.18713,-9.625c1.44392,-2.90039 3.22753,-5.5 5.30851,-7.77741c2.12336,-2.32027 4.39537,-4.29681 6.79487,-5.92963c2.37823,-1.63282 4.39537,-2.96486 6.00922,-3.99614z" fill="#d4d4d4" fill-opacity="1"></path></g></g></svg>