<?xml version="1.0" encoding="UTF-8"?>
<svg id="SVGDoc" width="14" height="14" xmlns="http://www.w3.org/2000/svg" version="1.1" xmlns:xlink="http://www.w3.org/1999/xlink" xmlns:avocode="https://avocode.com/" viewBox="0 0 14 14"><defs></defs><desc>Generated with Avocode.</desc><g><g><title>icon-rss</title><path d="M2.27152,10.18169c-0.97805,0 -1.77157,0.85525 -1.77157,1.9092c0,1.05385 0.79352,1.9091 1.77157,1.9091c0.97805,0 1.77163,-0.85525 1.77163,-1.9091c0,-1.05395 -0.79358,-1.9092 -1.77163,-1.9092zM6.34991,7.69602c-1.39332,-1.51142 -3.24798,-2.43603 -5.21326,-2.60516h-0.04619c-0.14758,0 -0.29522,0.0596 -0.39673,0.16914c-0.1291,0.1191 -0.19377,0.28814 -0.19377,0.46723v1.34228c0,0.32813 0.23067,0.59657 0.53519,0.62651c2.81417,0.28834 5.04714,2.69451 5.31477,5.72711c0.0276,0.32832 0.27674,0.57686 0.58126,0.57686h1.24562c0.16606,0 0.32294,-0.06964 0.43368,-0.20893c0.11069,-0.12915 0.16612,-0.29819 0.15688,-0.47727c-0.15688,-2.11775 -1.01501,-4.11648 -2.41745,-5.61776zM9.67162,4.11641c-2.28834,-2.47582 -5.32401,-3.9374 -8.5535,-4.11648h-0.02766c-0.14758,0 -0.29522,0.0597 -0.40597,0.17909c-0.11986,0.1192 -0.18454,0.27839 -0.18454,0.45728v1.42197c0,0.32804 0.23991,0.60661 0.55361,0.62642c5.3609,0.33799 9.63306,4.94169 9.93752,10.71874c0.01842,0.33799 0.27674,0.59657 0.5905,0.59657h1.31947c0.16606,0 0.31364,-0.06964 0.42439,-0.19889c0.11998,-0.12915 0.18305,-0.29819 0.17363,-0.46733c-0.17363,-3.48002 -1.52999,-6.7514 -3.82745,-9.21737z" fill="#ffffff" fill-opacity="1"></path></g></g></svg>