<?xml version="1.0" encoding="UTF-8"?>
<svg id="SVGDoc" width="16" height="14" xmlns="http://www.w3.org/2000/svg" version="1.1" xmlns:xlink="http://www.w3.org/1999/xlink" xmlns:avocode="https://avocode.com/" viewBox="0 0 16 14"><defs></defs><desc>Generated with Avocode.</desc><g><g><title>icon-twitter</title><path d="M15.49995,2.04365c-0.55003,0.25399 -1.14977,0.43681 -1.76847,0.50779c0.63777,-0.4061 1.12325,-1.04601 1.35165,-1.80769c-0.59015,0.37568 -1.25653,0.65005 -1.9514,0.79221c-0.56159,-0.63991 -1.36119,-1.03596 -2.24644,-1.03596c-1.70392,0 -3.07471,1.47258 -3.07471,3.28046c0,0.2539 0.02861,0.5077 0.07617,0.75145c-2.55108,-0.14206 -4.82619,-1.44197 -6.33967,-3.43267c-0.26661,0.48751 -0.4189,1.0461 -0.4189,1.65549c0,1.13746 0.54258,2.14291 1.37073,2.73192c-0.50443,-0.02028 -0.98038,-0.17258 -1.38974,-0.41624v0.04047c0,1.59455 1.05661,2.91483 2.46543,3.21953c-0.25702,0.07108 -0.53304,0.11183 -0.80907,0.11183c-0.19997,0 -0.39035,-0.02038 -0.58067,-0.0508c0.39023,1.2999 1.52296,2.2445 2.87473,2.27502c-1.05661,0.88357 -2.37978,1.4015 -3.81714,1.4015c-0.25702,0 -0.49502,-0.01014 -0.7425,-0.04056c1.36125,0.93436 2.97946,1.47258 4.72146,1.47258c5.65428,0 8.74799,-4.9968 8.74799,-9.3335c0,-0.14225 0,-0.28451 -0.00948,-0.42667c0.59968,-0.46713 1.12319,-1.0461 1.54001,-1.69615z" fill="#ffffff" fill-opacity="1"></path></g></g></svg>