<?xml version="1.0" encoding="UTF-8"?>
<svg id="SVGDoc" width="16" height="14" xmlns="http://www.w3.org/2000/svg" version="1.1" xmlns:xlink="http://www.w3.org/1999/xlink" xmlns:avocode="https://avocode.com/" viewBox="0 0 16 14"><defs></defs><desc>Generated with Avocode.</desc><g><g><title>icon-linkedin</title><path d="M0.68319,4.42716v9.57276h3.04186v-9.57276zM2.22343,-0.00005c-1.03289,0 -1.72347,0.71481 -1.72347,1.65186c0,0.91762 0.66286,1.65186 1.68663,1.65186h0.0183c1.06078,0 1.74415,-0.73423 1.7339,-1.65186v-0.18043c-0.01013,-0.75662 -0.67312,-1.47143 -1.71536,-1.47143zM11.95157,4.38545c-1.7845,-0.17766 -2.58187,0.7468 -3.02386,1.40246v-1.20328h-3.34954c0,0 0.04059,0.80904 0,9.34518h3.34954v-5.34167c0,-0.28987 0.03058,-0.57007 0.112,-0.78254c0.24426,-0.57007 0.79417,-1.15918 1.72073,-1.15918c1.21146,0 1.69766,0.87907 1.69766,2.16386v5.11954h3.04186v-5.4867c0,-2.82328 -1.49763,-4.05765 -3.54838,-4.05765z" fill="#ffffff" fill-opacity="1"></path></g></g></svg>